<?xml version="1.0" encoding="UTF-8" ?>
<!DOCTYPE svg PUBLIC "-//W3C//DTD SVG 1.1//EN" "http://www.w3.org/Graphics/SVG/1.1/DTD/svg11.dtd">
<svg width="24pt" height="24pt" viewBox="0 0 300 300" version="1.1" xmlns="http://www.w3.org/2000/svg">
<g id="#182a52ff">
<path fill="#182a52" opacity="1.00" d=" M 248.86 25.01 C 253.02 25.54 256.93 23.73 261.08 24.28 C 259.77 32.57 259.04 40.89 258.23 49.25 C 257.44 51.89 258.55 54.84 256.75 57.21 C 252.71 53.90 249.37 49.81 245.68 46.13 C 240.02 51.65 235.12 58.00 228.86 62.86 C 223.34 69.27 216.93 74.88 211.25 81.18 C 205.02 87.31 199.46 94.19 192.64 99.67 C 182.19 110.55 171.76 121.46 161.27 132.31 C 156.68 135.76 152.96 140.19 149.00 144.32 C 149.67 145.64 151.02 148.28 151.69 149.60 L 148.54 149.63 L 147.34 147.19 L 146.39 146.97 C 142.84 150.51 139.60 154.37 135.90 157.75 C 111.55 161.72 87.03 164.70 62.63 168.46 C 57.42 169.30 52.07 169.51 46.94 170.85 C 45.27 171.08 43.47 170.89 42.05 169.90 C 42.71 167.43 41.40 165.08 41.59 162.61 C 45.80 162.81 49.89 161.47 54.05 161.02 C 79.69 157.53 105.25 153.61 130.90 150.20 C 137.60 144.49 142.85 137.20 149.81 131.77 C 157.62 123.55 165.63 115.50 173.31 107.17 C 173.28 106.64 173.22 105.60 173.19 105.07 C 173.82 105.00 175.07 104.87 175.70 104.80 C 178.47 102.01 181.00 98.95 184.26 96.70 C 195.01 85.62 205.69 74.44 216.40 63.31 C 221.07 59.76 225.04 55.31 228.85 50.87 C 231.53 48.82 233.54 46.07 236.03 43.81 C 235.04 37.64 232.14 31.92 227.91 27.37 C 234.79 25.60 241.96 26.52 248.86 25.01 Z" />
<path fill="#182a52" opacity="1.00" d=" M 236.34 71.08 C 236.83 70.90 237.81 70.55 238.29 70.37 C 238.17 137.32 238.29 204.27 238.24 271.23 C 220.18 271.24 202.12 271.31 184.07 271.19 C 184.24 222.11 184.04 173.03 184.17 123.95 C 188.67 119.06 193.05 113.92 198.31 109.80 C 205.35 102.91 211.54 95.12 219.20 88.90 C 224.90 82.95 230.50 76.88 236.34 71.08 Z" />
<path fill="#182a52" opacity="1.00" d=" M 155.01 151.63 C 159.76 148.03 162.59 142.37 167.22 138.81 C 167.31 182.95 167.26 227.09 167.25 271.23 C 149.17 271.25 131.09 271.29 113.01 271.21 C 113.15 238.19 112.97 205.18 113.10 172.16 C 119.90 170.37 127.16 170.95 134.03 169.30 C 136.07 169.13 138.26 169.73 140.17 168.74 C 143.09 167.54 143.96 164.22 146.28 162.32 C 148.21 160.73 149.26 158.41 151.03 156.67 C 150.94 153.80 147.72 151.44 149.60 148.53 C 151.91 148.48 153.71 149.51 155.01 151.63 Z" />
<path fill="#182a52" opacity="1.00" d=" M 41.00 180.22 C 60.11 177.96 79.19 176.13 98.38 174.43 C 98.12 206.70 98.36 238.97 98.26 271.23 C 79.17 271.27 60.08 271.25 41.00 271.24 C 41.00 240.90 40.99 210.56 41.00 180.22 Z" />
</g>
</svg>
