
<svg  width="24" height="24" viewBox="0 0 190 190" version="1.1" xmlns="http://www.w3.org/2000/svg">
<g id="#778890ff">
<path fill="#778890" opacity="1.00" d=" M 0.00 0.00 L 200.00 0.00 L 200.00 200.00 L 0.00 200.00 L 0.00 0.00 M 23.92 57.13 C 23.83 73.08 23.91 89.03 23.87 104.98 C 23.76 112.94 25.58 121.11 30.11 127.76 C 34.46 134.39 41.31 139.24 48.97 141.28 C 59.50 144.14 71.29 143.33 80.83 137.76 C 92.26 131.30 97.96 117.76 97.60 105.00 C 97.67 89.07 97.57 73.14 97.65 57.21 C 91.95 57.06 86.26 57.16 80.57 57.15 C 80.69 73.76 80.59 90.37 80.63 106.98 C 80.65 112.43 79.32 118.36 75.14 122.16 C 71.73 125.72 66.70 127.02 61.93 127.33 C 56.02 127.53 49.60 126.10 45.49 121.55 C 41.79 117.73 40.66 112.21 40.63 107.06 C 40.59 90.44 40.67 73.81 40.60 57.19 C 35.04 57.06 29.48 57.14 23.92 57.13 M 153.06 64.04 C 140.67 80.82 129.28 98.33 116.49 114.81 C 116.53 117.65 115.75 120.89 117.71 123.30 C 119.38 126.17 123.10 126.03 125.98 126.33 C 135.48 126.47 144.98 126.23 154.48 126.48 C 154.55 131.42 154.53 136.36 154.52 141.30 C 159.68 143.26 165.09 141.82 170.38 141.48 C 170.24 131.87 170.54 122.25 170.32 112.63 C 159.95 112.44 149.57 112.64 139.20 112.52 C 138.79 108.52 142.17 106.06 144.14 103.05 C 153.63 89.27 163.13 75.48 173.11 62.06 C 173.80 60.61 173.57 58.93 173.76 57.38 C 168.77 57.54 163.76 57.19 158.77 57.55 C 156.13 58.84 154.85 61.82 153.06 64.04 Z" />
</g>
<g id="#fefffeff">
</g>
<g id="#a4c918ff">
</g>
</svg>
